<svg width="43" height="43" viewBox="0 0 43 43" fill="none" xmlns="http://www.w3.org/2000/svg">
<rect width="43" height="43" fill="white"/>
<path d="M39.5193 9.21679C39.5193 7.26449 38.1763 5.88829 36.2328 5.85628C35.5218 5.85628 34.795 5.85628 34.0998 5.85628C33.768 5.85628 33.452 5.85628 33.1202 5.85628H32.2827V4H29.4387V5.82428H14.0965V4H11.2524V5.80827H10.8416C10.8416 5.80827 10.7626 5.82428 10.731 5.84028C10.6362 5.84028 10.5414 5.84028 10.4466 5.84028C10.0358 5.84028 9.62495 5.84028 9.21414 5.84028C8.61372 5.84028 7.99751 5.84028 7.39709 5.84028C5.61164 5.84028 4.42661 6.83243 4.0474 8.5927C4.0474 8.6407 4.0158 8.67271 4 8.72072V36.4689C4 36.773 4.0474 37.301 4.1106 37.5091C4.1896 37.7971 4.28441 38.0532 4.41081 38.2772C5.04283 39.3814 5.99085 39.9574 7.23909 39.9574C8.80333 39.9574 10.3992 39.9574 11.9318 39.9574C12.5954 39.9574 13.2432 39.9574 13.9069 39.9574H19.9268C25.3306 39.9574 30.7343 39.9574 36.138 39.9574C37.7655 39.9574 39.0453 38.9813 39.4087 37.4611C39.4719 37.205 39.5035 36.901 39.5035 36.5649C39.5035 27.7636 39.5035 18.8022 39.5035 9.20079L39.5193 9.21679ZM36.7227 37.125H6.81247V17.8901H36.7227V37.125ZM36.7227 15.0257H6.81247V8.68871H11.2682V10.465H14.0491V8.67271H29.4387V10.465H32.2195V8.68871H36.7069V15.0257H36.7227Z" fill="black"/>
<path d="M21.7594 33.0131C22.265 33.0131 22.7548 33.0131 23.2288 33.0131C23.2288 32.6611 23.2288 32.309 23.2288 31.973C23.2288 31.8129 23.2288 31.6689 23.2288 31.5089C23.2288 31.3489 23.2288 31.1888 23.2288 31.0448C23.2288 30.6928 23.2288 30.3407 23.2288 29.9727C22.2808 29.9727 21.3012 29.9727 20.2109 29.9727C20.2109 31.0928 20.2109 32.085 20.2109 33.0291C20.7482 33.0291 21.2696 33.0291 21.7594 33.0291V33.0131Z" fill="black"/>
<path d="M23.1811 22.082H20.2422V25.0745H23.1811V22.082Z" fill="black"/>
<path d="M15.3608 30.0039H12.4219V32.9964H15.3608V30.0039Z" fill="black"/>
<path d="M31.017 30.0039H28.0781V32.9964H31.017V30.0039Z" fill="black"/>
<path d="M31.0328 22.082H28.0781V25.0585H31.0328V22.082Z" fill="black"/>
</svg>
