<svg width="43" height="43" viewBox="0 0 43 43" fill="none" xmlns="http://www.w3.org/2000/svg">
<rect width="43" height="43" fill="white"/>
<path d="M37.1855 13.9887C36.0886 7.9264 31.1591 2.74188 25.2004 1.39775C24.6587 1.2743 24.1034 1.19201 23.5753 1.10972C23.3315 1.06857 23.0877 1.04115 22.844 1H22.8169H20.6636H20.6095C20.4605 1.02743 20.3115 1.04114 20.149 1.06857C19.824 1.10972 19.4719 1.16458 19.1333 1.21945C13.2965 2.35785 9.16602 5.86906 6.86379 11.6708C5.68559 14.6471 5.71268 17.9251 6.94505 21.6969C7.89302 24.6184 9.43687 27.4027 11.9152 30.7219C14.5153 34.2056 17.4405 37.2368 20.7313 40.556C21.0428 40.8577 21.3678 41.0223 21.7064 41.0223C22.045 41.0223 22.3835 40.8714 22.695 40.5697C23.0742 40.1994 23.4534 39.8016 23.819 39.4313L24.1305 39.1021C26.9067 36.2767 29.8048 33.177 32.2696 29.6795C34.301 26.8129 35.6281 24.2755 36.4678 21.7107C37.3751 18.9264 37.6053 16.4164 37.172 14.0162L37.1855 13.9887ZM33.9759 20.9151C33.1092 23.5211 31.7143 26.0311 29.4663 29.0623C27.1234 32.2169 24.3472 35.1109 21.7064 37.7991C21.3543 37.4288 21.0022 37.0585 20.6636 36.7019C19.7157 35.7006 18.7406 34.672 17.7926 33.6433C15.2466 30.859 13.3507 28.4039 11.8339 25.9077C10.263 23.3154 9.32853 21.0386 8.89517 18.7481C8.2045 15.0723 9.04414 11.8217 11.4683 8.79049C13.608 6.10222 16.2081 4.45634 19.1875 3.90772C20.1084 3.74313 21.0022 3.64711 21.8689 3.64711C25.4712 3.64711 28.6266 5.10098 31.2945 8.0087C32.9467 9.79173 33.9759 11.6845 34.4635 13.7693C34.9916 16.0049 34.8291 18.3503 33.9759 20.9151Z" fill="black"/>
<path d="M21.7333 10.3301C17.8466 10.3301 14.6776 13.5259 14.6641 17.4486C14.6641 21.3987 17.8059 24.6219 21.6926 24.6219H21.7062C23.6021 24.6219 25.3762 23.8812 26.7169 22.5371C28.0576 21.1929 28.7889 19.3962 28.7889 17.476C28.7889 13.5396 25.6335 10.3301 21.7468 10.3164L21.7333 10.3301ZM26.1617 17.5034C26.1617 18.6967 25.6877 19.8214 24.848 20.6717C24.0084 21.5084 22.8979 21.9747 21.7062 21.9747C21.7062 21.9747 21.7062 21.9747 21.6926 21.9747C20.5144 21.9747 19.4175 21.4947 18.5914 20.658C17.7518 19.7939 17.2913 18.6555 17.2913 17.4348C17.3049 14.9797 19.2956 12.991 21.7333 12.991C21.7333 12.991 21.7333 12.991 21.7468 12.991C22.9385 12.991 24.049 13.471 24.8751 14.3214C25.7012 15.1718 26.1617 16.3102 26.1617 17.5171V17.5034Z" fill="black"/>
</svg>
