<svg width="43" height="43" viewBox="0 0 43 43" fill="none" xmlns="http://www.w3.org/2000/svg">
<rect width="43" height="43" fill="white"/>
<path d="M20.8703 2C21.6129 2 22.3555 2 23.0981 2C23.2087 2.016 23.3193 2.04801 23.4141 2.06401C24.457 2.22404 25.4998 2.32005 26.5268 2.56008C36.2757 4.92844 42.5642 14.8499 40.6524 24.8355C39.8624 28.9801 37.9505 32.5326 34.8536 35.3651C30.4611 39.4297 25.2628 41.0459 19.3692 40.2778C15.6245 39.7977 12.3064 38.2295 9.47817 35.7011C6.14428 32.7087 4.04283 28.9961 3.28441 24.5474C3.158 23.8273 3.0948 23.0912 3 22.3711C3 21.619 3 20.8669 3 20.1147C3.0158 19.9867 3.0474 19.8427 3.0632 19.7147C3.158 19.0266 3.20541 18.3225 3.33181 17.6344C4.05863 13.8098 5.78087 10.4973 8.48274 7.72886C11.3268 4.83243 14.7397 2.99215 18.7214 2.30404C19.4324 2.17602 20.1593 2.11202 20.8861 2H20.8703ZM21.9921 5.00846C13.1755 5.00846 5.97048 12.2736 5.95468 21.2189C5.93888 30.1483 13.1123 37.4454 21.9447 37.4774C30.7613 37.5094 37.9979 30.1963 38.0137 21.2509C38.0137 12.3216 30.8245 5.02446 21.9921 5.00846Z" fill="black"/>
<path d="M20.5234 22.7087V7.73047H23.4623V19.7323H31.7733V22.7087H20.5234Z" fill="black"/>
</svg>
